<?xml version="1.0" encoding="UTF-8" standalone="no"?>
<!DOCTYPE svg PUBLIC "-//W3C//DTD SVG 1.1//EN" "http://www.w3.org/Graphics/SVG/1.1/DTD/svg11.dtd">
<svg width="100%" height="100%" viewBox="0 0 186 38" version="1.1" xmlns="http://www.w3.org/2000/svg" xmlns:xlink="http://www.w3.org/1999/xlink" xml:space="preserve" xmlns:serif="http://www.serif.com/" style="fill-rule:evenodd;clip-rule:evenodd;stroke-linejoin:round;stroke-miterlimit:2;">
    <path d="M18.857,19.927C18.31,19.927 17.866,20.371 17.866,20.919C17.866,21.467 18.31,21.91 18.857,21.91C19.407,21.91 19.852,21.467 19.852,20.919C19.852,20.371 19.407,19.927 18.857,19.927" style="fill:rgb(247,145,26);fill-rule:nonzero;"/>
    <path d="M8.446,20.919C8.446,21.467 8.891,21.911 9.438,21.911L16.874,21.911L16.874,19.927L9.438,19.927C8.891,19.927 8.446,20.371 8.446,20.919" style="fill:rgb(247,145,26);fill-rule:nonzero;"/>
    <path d="M24.311,15.961L9.438,15.961C8.891,15.961 8.447,16.405 8.447,16.953C8.447,17.501 8.891,17.944 9.438,17.944L24.311,17.944C24.861,17.944 25.302,17.501 25.302,16.953C25.302,16.405 24.861,15.961 24.311,15.961" style="fill:rgb(247,145,26);fill-rule:nonzero;"/>
    <path d="M9.438,13.978L24.311,13.978C24.861,13.978 25.302,13.534 25.302,12.986C25.302,12.439 24.861,11.995 24.311,11.995L9.438,11.995C8.891,11.995 8.446,12.439 8.446,12.986C8.446,13.534 8.891,13.978 9.438,13.978" style="fill:rgb(247,145,26);fill-rule:nonzero;"/>
    <path d="M26.643,26.049C25.888,26.862 25.419,28.049 25.419,29.148C25.419,29.952 25.419,30.998 25.423,32.099C24.534,31.516 23.691,30.964 23.038,30.537C22.35,30.09 21.504,29.844 20.646,29.844C20.339,29.844 20.036,29.876 19.743,29.941C18.71,30.17 17.701,30.286 16.745,30.286C16.138,30.286 15.531,30.239 14.945,30.147C11.619,29.622 8.969,28.182 6.842,25.741C4.083,22.573 3.032,19.016 3.635,14.866C4.147,11.331 5.787,8.533 8.652,6.312C11.118,4.4 13.753,3.47 16.713,3.47C17.44,3.47 18.194,3.529 18.96,3.645C22.234,4.142 24.876,5.615 27.028,8.149C29.691,11.282 30.704,14.802 30.125,18.91C29.744,21.605 28.605,23.94 26.643,26.049L26.643,26.049ZM29.187,28.412C31.564,25.852 33.071,22.85 33.561,19.396C34.274,14.34 32.993,9.805 29.673,5.901C26.992,2.746 23.563,0.832 19.478,0.213C14.705,-0.51 10.348,0.605 6.524,3.569C2.99,6.312 0.841,9.944 0.199,14.367C-0.545,19.504 0.806,24.096 4.228,28.022C6.927,31.119 10.356,32.937 14.406,33.575C16.448,33.897 18.477,33.776 20.491,33.33C20.685,33.287 20.978,33.336 21.144,33.445C22.774,34.508 25.578,36.354 27.342,37.51C28.019,37.955 28.919,37.466 28.915,36.654C28.905,34.527 28.887,31.117 28.887,29.151C28.887,28.915 29.025,28.586 29.187,28.413" style="fill:rgb(40,135,49);fill-rule:nonzero;"/>
    <path d="M42.164,20.651L43.917,15.771L45.667,20.651L42.164,20.651ZM45.431,10.888C45.297,10.556 45.06,10.298 44.75,10.142C44.503,10.019 44.224,9.956 43.917,9.956C43.61,9.956 43.328,10.019 43.081,10.142C42.771,10.299 42.534,10.558 42.393,10.915L37.102,25.605C37.031,25.778 36.999,25.934 36.999,26.084L36.999,26.221C36.999,26.664 37.179,27.062 37.504,27.338C37.8,27.589 38.167,27.722 38.569,27.722C39.261,27.722 39.793,27.353 39.98,26.76L41.049,23.746L46.764,23.746L47.865,26.789C47.992,27.109 48.207,27.36 48.486,27.517C48.726,27.653 48.987,27.722 49.265,27.722C49.664,27.722 50.031,27.59 50.324,27.34C50.652,27.062 50.835,26.664 50.835,26.221L50.835,26.084C50.835,25.934 50.8,25.783 50.74,25.632L45.431,10.888" style="fill:rgb(40,135,49);fill-rule:nonzero;"/>
    <path d="M64.456,25.361L60.18,18.829L64.424,12.364C64.601,12.121 64.689,11.827 64.689,11.492C64.689,11.091 64.541,10.725 64.265,10.431C63.976,10.127 63.595,9.967 63.165,9.967C62.618,9.967 62.138,10.224 61.792,10.712L58.363,15.903L54.92,10.691C54.592,10.224 54.127,9.967 53.612,9.967L53.566,9.967C53.125,9.967 52.74,10.137 52.451,10.458C52.183,10.756 52.042,11.113 52.042,11.492C52.042,11.821 52.126,12.11 52.292,12.349L56.525,18.829L52.285,25.342L52.26,25.38C52.13,25.608 52.063,25.871 52.063,26.163C52.063,26.54 52.186,26.894 52.419,27.184C52.691,27.523 53.096,27.711 53.566,27.711C54.095,27.711 54.571,27.454 54.913,26.968L58.363,21.769L61.831,26.986C62.159,27.454 62.632,27.711 63.165,27.711C63.63,27.711 64.036,27.524 64.308,27.185C64.54,26.893 64.664,26.54 64.664,26.164C64.664,25.872 64.6,25.61 64.47,25.382L64.456,25.361" style="fill:rgb(40,135,49);fill-rule:nonzero;"/>
    <path d="M75.63,9.98C72.69,9.98 70.6,11.77 70.6,14.24C70.6,16.4 71.83,17.6 73.57,18.46L76.43,19.88C78,20.66 78.98,21.42 78.98,23.14C78.98,25.02 77.41,26.05 75.5,26.05C74.18,26.05 73.17,25.83 72.12,25.34C71.75,25.17 71.61,25.12 71.39,25.12C70.92,25.12 70.6,25.46 70.6,25.93C70.6,26.3 70.77,26.54 71.14,26.71C72.49,27.33 73.89,27.64 75.5,27.64C78.32,27.64 80.7,25.98 80.7,23.09C80.7,20.37 78.98,19.29 77.39,18.48L74.55,17.09C73.1,16.38 72.32,15.66 72.32,14.19C72.32,12.72 73.71,11.57 75.53,11.57C76.78,11.57 77.63,11.77 78.76,12.19C79.03,12.28 79.23,12.38 79.5,12.38C79.91,12.38 80.23,12.04 80.23,11.6C80.23,11.23 80.08,10.98 79.74,10.81C78.54,10.23 77.24,9.98 75.63,9.98ZM84.96,10.23C84.37,10.23 83.88,10.67 83.88,11.28L83.88,26.35C83.88,26.96 84.37,27.4 84.96,27.4L92.46,27.4C92.95,27.4 93.27,27.03 93.27,26.57C93.27,26.13 92.95,25.76 92.46,25.76L85.6,25.76L85.6,19.31L91.97,19.31C92.46,19.31 92.8,18.95 92.8,18.48C92.8,18.02 92.46,17.67 91.97,17.67L85.6,17.67L85.6,11.87L92.28,11.87C92.78,11.87 93.09,11.5 93.09,11.03C93.09,10.59 92.78,10.23 92.28,10.23L84.96,10.23ZM109.97,9.98C109.58,9.98 109.29,10.18 109.09,10.54L103.75,20.61L98.41,10.54C98.21,10.18 97.92,9.98 97.5,9.98C96.96,9.98 96.57,10.35 96.57,10.91L96.57,26.79C96.57,27.28 96.96,27.64 97.43,27.64C97.9,27.64 98.29,27.28 98.29,26.79L98.29,13.66L102.92,22.55C103.07,22.84 103.36,23.01 103.75,23.01C104.12,23.01 104.41,22.84 104.56,22.55L109.21,13.66L109.21,26.79C109.21,27.28 109.58,27.64 110.05,27.64C110.51,27.64 110.91,27.28 110.91,26.79L110.91,10.91C110.91,10.35 110.54,9.98 109.97,9.98ZM119.99,9.98C119.58,9.98 119.19,10.23 119.04,10.62L113.7,26.44C113.65,26.59 113.62,26.74 113.62,26.84C113.62,27.3 113.97,27.64 114.46,27.64C114.8,27.64 115.14,27.45 115.27,27.08L116.64,22.84L123.33,22.84L124.7,27.08C124.82,27.45 125.16,27.64 125.51,27.64C126,27.64 126.34,27.3 126.34,26.84C126.34,26.74 126.32,26.59 126.27,26.44L120.93,10.62C120.78,10.23 120.39,9.98 119.99,9.98ZM119.99,12.58L122.81,21.27L117.15,21.27L119.99,12.58ZM139.18,9.98C138.71,9.98 138.32,10.35 138.32,10.84L138.32,24.04L130.87,10.54C130.65,10.18 130.38,9.98 129.97,9.98C129.45,9.98 129.03,10.4 129.03,10.91L129.03,26.79C129.03,27.28 129.43,27.64 129.89,27.64C130.36,27.64 130.75,27.28 130.75,26.79L130.75,13.58L138.2,27.08C138.39,27.45 138.71,27.64 139.08,27.64C139.59,27.64 140.01,27.23 140.01,26.71L140.01,10.84C140.01,10.35 139.64,9.98 139.18,9.98ZM143.29,10.23C142.8,10.23 142.46,10.59 142.46,11.03C142.46,11.5 142.8,11.87 143.29,11.87L147.41,11.87L147.41,26.79C147.41,27.28 147.8,27.64 148.27,27.64C148.73,27.64 149.12,27.28 149.12,26.79L149.12,11.87L153.27,11.87C153.73,11.87 154.1,11.5 154.1,11.03C154.1,10.59 153.73,10.23 153.27,10.23L143.29,10.23ZM157.38,9.98C156.92,9.98 156.52,10.32 156.52,10.81L156.52,26.81C156.52,27.3 156.92,27.64 157.38,27.64C157.85,27.64 158.24,27.3 158.24,26.81L158.24,10.81C158.24,10.32 157.85,9.98 157.38,9.98ZM167.79,9.98C164.34,9.98 161.94,12.09 161.94,15.74L161.94,21.89C161.94,25.49 164.34,27.64 167.79,27.64C169.07,27.64 170.37,27.35 171.44,26.62C171.74,26.42 171.89,26.2 171.89,25.88C171.89,25.42 171.49,25.1 171.08,25.1C170.88,25.1 170.71,25.17 170.42,25.32C169.58,25.78 168.75,26.05 167.79,26.05C165.27,26.05 163.65,24.51 163.65,21.99L163.65,15.64C163.65,13.14 165.25,11.57 167.79,11.57C168.8,11.57 169.61,11.82 170.54,12.36C170.71,12.45 170.88,12.53 171.08,12.53C171.54,12.53 171.89,12.14 171.89,11.74C171.89,11.38 171.66,11.16 171.27,10.94C170.22,10.37 169.14,9.98 167.79,9.98ZM179.06,9.98C176.12,9.98 174.04,11.77 174.04,14.24C174.04,16.4 175.27,17.6 177.01,18.46L179.87,19.88C181.44,20.66 182.42,21.42 182.42,23.14C182.42,25.02 180.85,26.05 178.94,26.05C177.62,26.05 176.61,25.83 175.56,25.34C175.19,25.17 175.05,25.12 174.83,25.12C174.36,25.12 174.04,25.46 174.04,25.93C174.04,26.3 174.21,26.54 174.58,26.71C175.93,27.33 177.32,27.64 178.94,27.64C181.76,27.64 184.14,25.98 184.14,23.09C184.14,20.37 182.42,19.29 180.83,18.48L177.99,17.09C176.54,16.38 175.76,15.66 175.76,14.19C175.76,12.72 177.15,11.57 178.97,11.57C180.22,11.57 181.07,11.77 182.2,12.19C182.47,12.28 182.67,12.38 182.93,12.38C183.35,12.38 183.67,12.04 183.67,11.6C183.67,11.23 183.52,10.98 183.18,10.81C181.98,10.23 180.68,9.98 179.06,9.98Z" style="fill:rgb(244,158,19);fill-rule:nonzero;"/>
</svg>
